<svg viewBox="144.0 156.0 247.0 320.0" xmlns="http://www.w3.org/2000/svg" aria-hidden="true">
      <path fill="currentColor" fill-rule="evenodd" d="M 266.5 164 L 279.5 166 L 287.5 170 L 295 176.5 L 301 186.5 L 302 192.5 L 303 193.5 L 303 310.5 L 304.5 312 L 314.5 311 L 320 306.5 L 321 303.5 L 321 243.5 L 325 233.5 L 333.5 225 L 342.5 222 L 350.5 222 L 351.5 223 L 357.5 224 L 367 232.5 L 371 240.5 L 371 255.5 L 372.5 257 L 381.5 257 L 383 258.5 L 379.5 263 L 371 270.5 L 371 284.5 L 372.5 286 L 382.5 286 L 383 287.5 L 371 298.5 L 371 312.5 L 370 313.5 L 368 323.5 L 364 332.5 L 351 349.5 L 355 359.5 L 352.5 361 L 340.5 355 L 332.5 360 L 326.5 362 L 323.5 362 L 322.5 363 Q 317.8 361.8 316.5 364 L 303 364 L 303 392 L 313.5 392 L 315 394.5 L 303 405.5 L 303 454.5 L 304.5 456 L 337.5 456 L 341 459.5 L 341 464.5 L 340 467 L 337.5 468 L 197.5 468 Q 192.7 466.7 194 459.5 L 198.5 456 L 232 456 L 232 424.5 L 227.5 420 L 220 413.5 L 221.5 412 L 232 412 L 232 389 L 217.5 389 L 216.5 388 L 212.5 388 L 211.5 387 L 208.5 387 L 202.5 385 L 189.5 378 L 179.5 384 L 177 384 L 177 380.5 L 181 372.5 L 181 370.5 L 175 363.5 L 169 353.5 L 169 351.5 L 166 345.5 L 165 337.5 L 164 336.5 L 164 324.5 L 159.5 320 L 153 314.5 L 154.5 312 Q 160 311 162.5 313 L 164 311.5 L 164 295.5 L 153 286.5 L 152 284.5 L 162.5 284 L 164 282.5 L 164 267.5 L 168 258.5 L 173.5 253 L 180.5 249 Q 183.7 249.8 184.5 248 L 193.5 248 L 203.5 252 L 210 258.5 L 214 268.5 L 214 329.5 L 219.5 336 L 221.5 337 L 232 337 L 232 252.5 L 225.5 246 L 220 241.5 L 220.5 240 L 230.5 240 L 232 238.5 L 232 223.5 L 220 212.5 L 221.5 211 L 232 211 L 232 194.5 L 233 193.5 L 234 187.5 Q 238.2 177.2 246.5 171 L 253.5 167 L 259.5 165 L 265.5 165 L 266.5 164 Z M 260 178 L 253 182 Q 248 187 245 194 L 245 201 L 244 202 L 244 348 L 243 349 L 219 349 L 211 345 L 205 340 L 202 333 L 202 272 L 200 267 L 196 262 L 191 260 L 184 261 Q 178 264 176 271 L 176 332 L 177 333 L 177 339 L 180 348 L 186 358 Q 195 368 209 374 L 212 374 L 216 376 L 223 376 L 224 377 L 241 377 L 244 380 L 244 456 L 245 456 L 262 456 L 262 179 Q 262 178 260 178 Z M 273 178 L 273 456 L 274 456 L 291 456 L 291 356 L 292 353 L 297 351 L 320 351 L 321 350 L 324 350 L 330 348 L 340 342 Q 348 336 353 327 L 357 318 L 358 310 L 359 309 L 359 245 L 356 238 L 348 234 L 340 236 Q 336 239 334 244 L 334 250 L 333 251 Q 332 254 334 256 L 334 303 L 330 314 L 323 321 L 315 324 L 296 324 L 294 323 L 291 321 L 291 197 L 287 187 L 279 179 L 273 178 Z " />
</svg>
